<?xml version="1.0" standalone="no"?>
<!DOCTYPE svg PUBLIC "-//W3C//DTD SVG 20010904//EN"
 "http://www.w3.org/TR/2001/REC-SVG-20010904/DTD/svg10.dtd">
<svg version="1.0" xmlns="http://www.w3.org/2000/svg"
 width="332.000000pt" height="364.000000pt" viewBox="0 0 332.000000 364.000000"
 preserveAspectRatio="xMidYMid meet">

<g transform="translate(0.000000,364.000000) scale(0.100000,-0.100000)"
fill="#000000" stroke="none">
<path d="M1623 3123 c26 -2 67 -2 90 0 23 2 2 3 -48 3 -49 0 -68 -1 -42 -3z"/>
<path d="M1389 3043 c-13 -16 -12 -17 4 -4 9 7 17 15 17 17 0 8 -8 3 -21 -13z"/>
<path d="M2000 2938 c0 -3 6 -11 14 -17 10 -9 17 -7 27 6 12 16 12 17 -2 6
-12 -10 -18 -10 -27 -1 -7 7 -12 9 -12 6z"/>
<path d="M984 2888 l-19 -23 23 19 c21 18 27 26 19 26 -2 0 -12 -10 -23 -22z"/>
<path d="M2330 2886 c0 -2 8 -10 18 -17 15 -13 16 -12 3 4 -13 16 -21 21 -21
13z"/>
<path d="M1331 2585 c0 -36 -7 -69 -16 -82 -15 -22 -110 -63 -145 -63 -19 0
-20 -7 -18 -87 l2 -88 3 71 4 72 47 4 c26 3 63 12 83 22 l36 17 43 -40 c24
-22 67 -52 94 -68 49 -27 56 -28 196 -27 164 0 182 5 284 89 l55 44 32 -16
c18 -9 54 -18 80 -21 l48 -4 4 -47 c3 -41 4 -39 5 15 l2 61 -37 7 c-99 16
-142 56 -144 129 -1 35 -3 32 -19 -31 -15 -58 -61 -106 -135 -142 -59 -28 -71
-30 -176 -30 -107 0 -118 2 -174 31 -100 50 -130 90 -145 194 l-8 50 -1 -60z"/>
<path d="M655 2270 c-3 -6 4 -10 16 -10 14 0 51 -27 98 -72 42 -39 100 -93
129 -120 28 -28 52 -56 52 -64 0 -8 -12 -19 -27 -25 -19 -7 -23 -13 -15 -21 8
-8 18 -7 36 6 49 32 36 54 -109 190 -126 118 -164 142 -180 116z"/>
<path d="M2630 2212 c0 -24 63 -129 103 -170 36 -38 85 -67 95 -57 4 4 -4 15
-18 24 -59 39 -93 78 -126 147 -35 72 -54 92 -54 56z"/>
<path d="M2720 2174 c0 -21 44 -74 62 -74 19 0 18 2 -6 31 -14 17 -26 35 -26
40 0 5 -7 9 -15 9 -8 0 -15 -3 -15 -6z"/>
<path d="M550 2146 c0 -9 7 -12 18 -10 10 3 40 -14 77 -43 33 -27 82 -64 108
-82 70 -48 117 -91 117 -107 0 -8 -12 -20 -27 -26 -23 -9 -25 -12 -10 -15 22
-6 57 24 57 48 0 19 -43 59 -127 118 -32 22 -84 61 -116 86 -59 45 -97 57 -97
31z"/>
<path d="M455 2050 c-3 -5 4 -10 16 -10 20 0 268 -178 298 -214 11 -13 11 -19
1 -31 -7 -8 -19 -15 -26 -15 -8 0 -14 -4 -14 -10 0 -5 7 -10 15 -10 17 0 55
35 55 49 0 19 -47 61 -174 155 -122 91 -157 109 -171 86z"/>
<path d="M2220 1905 c0 -3 9 -14 20 -25 13 -13 20 -15 20 -7 0 7 -5 18 -12 25
-12 12 -28 16 -28 7z"/>
<path d="M1428 1883 c7 -3 16 -2 19 1 4 3 -2 6 -13 5 -11 0 -14 -3 -6 -6z"/>
<path d="M1878 1883 c6 -2 18 -2 25 0 6 3 1 5 -13 5 -14 0 -19 -2 -12 -5z"/>
<path d="M1135 1870 c7 -11 -5 -41 -14 -35 -4 2 -5 -10 -3 -28 l5 -31 10 24
c6 14 9 31 8 39 -1 7 2 10 8 6 7 -4 8 0 4 11 -5 13 -3 15 8 9 8 -5 11 -4 6 0
-10 12 -39 16 -32 5z"/>
<path d="M2170 1869 c0 -5 -5 -7 -12 -3 -6 4 -3 -8 9 -27 11 -19 23 -41 26
-49 3 -8 5 -3 4 13 -1 15 -5 27 -10 27 -4 0 -5 5 -1 12 4 7 3 8 -4 4 -16 -9
-15 7 0 22 9 9 9 12 0 12 -7 0 -12 -5 -12 -11z"/>
<path d="M1618 1863 c23 -2 61 -2 85 0 23 2 4 4 -43 4 -47 0 -66 -2 -42 -4z"/>
<path d="M2262 1820 c0 -19 2 -27 5 -17 2 9 2 25 0 35 -3 9 -5 1 -5 -18z"/>
<path d="M1051 1824 c0 -11 3 -14 6 -6 3 7 2 16 -1 19 -3 4 -6 -2 -5 -13z"/>
<path d="M1348 1833 c7 -3 16 -2 19 1 4 3 -2 6 -13 5 -11 0 -14 -3 -6 -6z"/>
<path d="M1958 1833 c7 -3 16 -2 19 1 4 3 -2 6 -13 5 -11 0 -14 -3 -6 -6z"/>
<path d="M1920 1826 c0 -2 7 -7 16 -10 8 -3 12 -2 9 4 -6 10 -25 14 -25 6z"/>
<path d="M1508 1813 c6 -2 18 -2 25 0 6 3 1 5 -13 5 -14 0 -19 -2 -12 -5z"/>
<path d="M1788 1813 c6 -2 18 -2 25 0 6 3 1 5 -13 5 -14 0 -19 -2 -12 -5z"/>
<path d="M1588 1803 c6 -2 18 -2 25 0 6 3 1 5 -13 5 -14 0 -19 -2 -12 -5z"/>
<path d="M1708 1803 c6 -2 18 -2 25 0 6 3 1 5 -13 5 -14 0 -19 -2 -12 -5z"/>
<path d="M1451 1760 c-52 -24 -50 -37 2 -15 43 18 90 19 120 4 20 -10 21 -10
6 5 -25 27 -78 29 -128 6z"/>
<path d="M1758 1764 c-16 -8 -28 -17 -28 -20 0 -2 9 0 19 6 28 14 76 12 118
-5 52 -22 54 -9 2 15 -52 23 -75 24 -111 4z"/>
<path d="M2204 1765 c-3 -8 -4 -20 -2 -27 3 -7 7 -1 10 15 6 29 1 36 -8 12z"/>
<path d="M2247 1761 c-4 -17 -3 -21 5 -13 5 5 8 16 6 23 -3 8 -7 3 -11 -10z"/>
<path d="M1111 1744 c0 -11 3 -14 6 -6 3 7 2 16 -1 19 -3 4 -6 -2 -5 -13z"/>
<path d="M1072 1698 c-7 -7 -11 -21 -11 -32 1 -21 1 -21 6 -1 3 11 10 26 15
33 13 15 6 16 -10 0z"/>
<path d="M2241 1692 c16 -25 4 -68 -26 -98 -14 -14 -25 -30 -25 -36 0 -6 16 9
35 33 19 24 35 54 35 66 0 28 -10 53 -21 53 -5 0 -4 -8 2 -18z"/>
<path d="M1105 1579 c11 -13 21 -26 22 -28 2 -2 3 2 3 10 0 8 -10 20 -22 28
l-23 14 20 -24z"/>
<path d="M1154 1556 c11 -6 36 -27 55 -46 57 -56 90 -79 46 -32 -21 23 -34 42
-28 42 7 0 15 -4 18 -10 3 -5 14 -9 23 -9 14 1 14 2 -2 6 -15 4 -16 7 -5 14
10 7 5 9 -16 7 -20 -2 -35 3 -46 16 -9 11 -27 20 -40 21 -22 2 -22 1 -5 -9z"/>
<path d="M2121 1549 c-13 -11 -32 -19 -43 -19 -10 0 -16 -4 -13 -10 3 -5 -2
-10 -12 -11 -11 0 -13 -3 -5 -6 7 -3 19 1 28 7 8 7 17 10 20 7 4 -3 -11 -23
-32 -43 l-39 -37 42 32 c49 37 60 51 41 51 -7 0 5 9 27 18 27 13 35 20 24 24
-8 3 -25 -3 -38 -13z"/>
<path d="M1306 1545 c-11 -8 -15 -15 -9 -15 6 0 16 7 23 15 16 19 11 19 -14 0z"/>
<path d="M1458 1543 c6 -2 18 -2 25 0 6 3 1 5 -13 5 -14 0 -19 -2 -12 -5z"/>
<path d="M1518 1543 c7 -3 16 -2 19 1 4 3 -2 6 -13 5 -11 0 -14 -3 -6 -6z"/>
<path d="M1788 1543 c7 -3 16 -2 19 1 4 3 -2 6 -13 5 -11 0 -14 -3 -6 -6z"/>
<path d="M1875 1535 c28 -7 51 -12 53 -10 6 5 -61 25 -82 24 -12 0 2 -6 29
-14z"/>
<path d="M2007 1539 c7 -7 15 -10 18 -7 3 3 -2 9 -12 12 -14 6 -15 5 -6 -5z"/>
<path d="M1400 1530 c-18 -12 -2 -12 25 0 13 6 15 9 5 9 -8 0 -22 -4 -30 -9z"/>
<path d="M1578 1520 c4 -3 21 -16 37 -30 l30 -25 -23 26 c-12 14 -20 28 -18
30 3 3 -4 5 -14 5 -11 0 -16 -3 -12 -6z"/>
<path d="M1716 1521 c2 -2 -6 -16 -18 -30 l-23 -26 30 25 c17 14 33 27 37 30
4 3 -1 6 -12 6 -10 0 -17 -2 -14 -5z"/>
<path d="M1130 1515 c0 -5 5 -17 10 -25 5 -8 10 -10 10 -5 0 6 -5 17 -10 25
-5 8 -10 11 -10 5z"/>
<path d="M1965 1510 c27 -12 43 -12 25 0 -8 5 -22 9 -30 9 -10 0 -8 -3 5 -9z"/>
<path d="M1650 1447 c0 -15 -37 -51 -60 -60 -13 -5 -13 -6 -1 -6 8 -1 28 11
43 26 l28 27 28 -27 c15 -15 32 -27 36 -27 4 0 -6 12 -23 26 -17 14 -31 32
-31 40 0 8 -4 14 -10 14 -5 0 -10 -6 -10 -13z"/>
<path d="M1300 1436 c0 -2 14 -14 30 -26 17 -12 30 -19 30 -16 0 2 -13 14 -30
26 -16 12 -30 19 -30 16z"/>
<path d="M1985 1414 c-18 -16 -22 -22 -9 -15 18 9 53 42 43 41 -2 -1 -17 -12
-34 -26z"/>
<path d="M1180 1401 c0 -6 4 -13 10 -16 6 -3 7 1 4 9 -7 18 -14 21 -14 7z"/>
<path d="M1525 1370 c-28 -7 -28 -8 -5 -9 14 0 32 4 40 9 17 11 8 11 -35 0z"/>
<path d="M1760 1370 c8 -5 26 -10 39 -10 32 0 24 6 -19 14 -25 4 -31 3 -20 -4z"/>
<path d="M1875 1370 c-28 -7 -28 -8 -5 -9 14 0 32 4 40 9 17 11 8 11 -35 0z"/>
<path d="M1200 1366 c0 -2 8 -10 18 -17 15 -13 16 -12 3 4 -13 16 -21 21 -21
13z"/>
<path d="M1438 1363 c6 -2 18 -2 25 0 6 3 1 5 -13 5 -14 0 -19 -2 -12 -5z"/>
<path d="M1265 1290 c21 -22 41 -40 44 -40 3 0 -13 18 -34 40 -21 22 -41 40
-44 40 -3 0 13 -18 34 -40z"/>
<path d="M2040 1285 c-24 -25 -42 -45 -39 -45 3 0 25 20 49 45 24 25 42 45 39
45 -3 0 -25 -20 -49 -45z"/>
<path d="M2680 1238 c0 -13 7 -32 16 -43 13 -17 16 -18 24 -5 13 21 13 24 -9
48 -23 28 -31 28 -31 0z"/>
<path d="M1335 1230 c7 -11 65 -43 65 -36 0 2 -16 13 -36 25 -19 12 -32 16
-29 11z"/>
<path d="M1960 1219 c-22 -18 -22 -19 -3 -10 12 6 25 16 28 21 9 15 3 12 -25
-11z"/>
<path d="M1417 1179 c7 -7 15 -10 18 -7 3 3 -2 9 -12 12 -14 6 -15 5 -6 -5z"/>
<path d="M2570 1150 c-10 -18 -8 -26 10 -45 20 -21 24 -22 37 -10 15 16 7 41
-21 64 -12 10 -17 8 -26 -9z"/>
<path d="M1530 1140 c8 -5 22 -9 30 -9 10 0 8 3 -5 9 -27 12 -43 12 -25 0z"/>
<path d="M1758 1133 c7 -3 16 -2 19 1 4 3 -2 6 -13 5 -11 0 -14 -3 -6 -6z"/>
<path d="M1608 1123 c7 -3 16 -2 19 1 4 3 -2 6 -13 5 -11 0 -14 -3 -6 -6z"/>
<path d="M1698 1123 c7 -3 16 -2 19 1 4 3 -2 6 -13 5 -11 0 -14 -3 -6 -6z"/>
<path d="M813 1083 c-13 -5 -19 -33 -8 -33 10 0 65 30 65 35 0 6 -41 5 -57 -2z"/>
<path d="M944 1018 c-52 -35 -70 -68 -37 -68 11 0 33 15 49 33 70 76 66 87
-12 35z"/>
<path d="M1057 950 c-43 -46 -46 -60 -13 -60 33 0 96 77 75 91 -21 13 -23 12
-62 -31z"/>
<path d="M1172 867 c-33 -34 -39 -51 -22 -62 14 -9 38 11 57 48 22 44 2 52
-35 14z"/>
<path d="M2061 873 c0 -16 3 -45 7 -66 7 -37 8 -37 30 -22 17 12 21 23 16 43
-3 15 -7 37 -10 50 -7 34 -44 30 -43 -5z"/>
<path d="M1309 833 c-20 -25 -39 -61 -39 -73 0 -19 35 -10 50 13 35 54 39 65
23 71 -20 8 -18 8 -34 -11z"/>
<path d="M1444 794 c-4 -10 -18 -36 -31 -57 -14 -22 -22 -41 -20 -43 9 -10 65
47 71 72 9 33 -10 57 -20 28z"/>
<path d="M1567 763 c-4 -3 -7 -19 -7 -35 0 -39 27 -48 51 -17 28 36 25 59 -9
59 -16 0 -32 -3 -35 -7z"/>
</g>
</svg>
